<svg width="25" height="25" viewBox="0 0 25 25" fill="none" xmlns="http://www.w3.org/2000/svg">
<path d="M17.7082 2.08315C19.0883 2.08727 20.4108 2.63737 21.3867 3.61329C22.3626 4.58922 22.9127 5.91169 22.9169 7.29185V17.7081C22.9127 19.0883 22.3626 20.4108 21.3867 21.3867C20.4108 22.3626 19.0883 22.9127 17.7082 22.9169H7.29185C5.91169 22.9127 4.58923 22.3626 3.6133 21.3867C2.63737 20.4108 2.08727 19.0883 2.08315 17.7081V7.29185C2.08727 5.91169 2.63737 4.58922 3.6133 3.61329C4.58923 2.63737 5.91169 2.08727 7.29185 2.08315H17.7082ZM17.7082 0H7.29185C3.28125 0 0 3.28125 0 7.29185V17.7081C0 21.7188 3.28125 25 7.29185 25H17.7082C21.7188 25 25 21.7188 25 17.7081V7.29185C25 3.28125 21.7188 0 17.7082 0Z" fill="white"/>
<path d="M19.2706 7.29151C18.9616 7.29151 18.6595 7.19987 18.4026 7.02817C18.1456 6.85647 17.9453 6.61243 17.8271 6.32691C17.7088 6.04139 17.6779 5.72721 17.7382 5.4241C17.7985 5.121 17.9473 4.84257 18.1658 4.62405C18.3843 4.40552 18.6627 4.2567 18.9658 4.19641C19.2689 4.13611 19.5831 4.16706 19.8686 4.28533C20.1541 4.40359 20.3981 4.60387 20.5698 4.86083C20.7415 5.11779 20.8331 5.4199 20.8331 5.72895C20.8336 5.93427 20.7935 6.13766 20.7151 6.32743C20.6367 6.51721 20.5217 6.68964 20.3765 6.83483C20.2313 6.98001 20.0589 7.09509 19.8691 7.17346C19.6793 7.25183 19.476 7.29195 19.2706 7.29151ZM12.5 8.33285C13.3241 8.33285 14.1297 8.57724 14.815 9.03512C15.5002 9.49299 16.0343 10.1438 16.3497 10.9052C16.665 11.6666 16.7476 12.5045 16.5868 13.3128C16.426 14.1211 16.0291 14.8636 15.4464 15.4464C14.8637 16.0292 14.1212 16.426 13.3129 16.5868C12.5046 16.7476 11.6668 16.6651 10.9054 16.3497C10.144 16.0343 9.49325 15.5002 9.03539 14.8149C8.57753 14.1297 8.33315 13.324 8.33315 12.4999C8.33433 11.3951 8.77372 10.3359 9.5549 9.55464C10.3361 8.77343 11.3952 8.33403 12.5 8.33285ZM12.5 6.24961C11.2639 6.24961 10.0555 6.61618 9.02769 7.30297C7.99988 7.98976 7.1988 8.96591 6.72576 10.108C6.25271 11.2501 6.12894 12.5068 6.37009 13.7192C6.61125 14.9317 7.20651 16.0453 8.08058 16.9195C8.95466 17.7936 10.0683 18.3889 11.2807 18.63C12.4931 18.8712 13.7497 18.7474 14.8918 18.2743C16.0338 17.8013 17.0099 17.0002 17.6967 15.9723C18.3834 14.9445 18.75 13.736 18.75 12.4999C18.75 10.8422 18.0915 9.25242 16.9194 8.08027C15.7473 6.90812 14.1576 6.24961 12.5 6.24961Z" fill="white"/>
</svg>
